<svg width="27" height="37" viewBox="0 0 27 37" fill="none" xmlns="http://www.w3.org/2000/svg">
<path d="M19.6543 22.3805C20.3552 21.9013 21.328 21.4865 21.328 21.4865C21.328 21.4865 18.5599 21.9871 15.8062 22.216C12.4373 22.495 8.81805 22.5522 7.00129 22.309C2.70257 21.7368 9.36165 20.1561 9.36165 20.1561C9.36165 20.1561 6.77956 19.9844 3.59665 21.5151C-0.158477 23.3318 12.895 24.1615 19.6543 22.3805ZM13.5459 20.0845C12.1869 17.0304 7.60211 14.3481 13.5459 9.65603C20.9603 3.80519 17.158 0 17.158 0C18.6958 6.04396 11.7506 7.87503 9.24006 11.6302C7.53058 14.1979 10.0769 16.9517 13.5459 20.0845ZM21.7428 7.48163C21.75 7.48163 9.21145 10.6145 15.1982 17.5096C16.9649 19.5409 14.7333 21.372 14.7333 21.372C14.7333 21.372 19.218 19.0546 17.158 16.1578C15.234 13.4541 13.7605 12.1094 21.7428 7.48163ZM21.3065 26.8295C21.2674 26.8976 21.2193 26.9602 21.1635 27.0154C30.3403 24.605 26.9642 18.511 22.5797 20.0559C22.3429 20.1429 22.1383 20.3002 21.9932 20.5065C22.2492 20.4139 22.5123 20.3421 22.78 20.292C24.9973 19.827 28.1802 23.2603 21.3065 26.8295ZM24.6797 31.2855C24.6797 31.2855 25.7168 32.1367 23.5424 32.8019C19.4011 34.0536 6.31893 34.4327 2.6854 32.852C1.37647 32.2869 3.82982 31.493 4.6023 31.3285C5.4034 31.1568 5.86832 31.1854 5.86832 31.1854C4.41634 30.1626 -3.52307 33.1953 1.83424 34.0608C16.4427 36.4354 28.4706 32.995 24.6797 31.2855ZM8.68931 28.3244C3.0602 29.8979 12.1154 33.1452 19.2823 30.0767C18.5834 29.8052 17.9086 29.475 17.2653 29.0897C14.0681 29.6977 12.5875 29.7406 9.68352 29.4116C7.2874 29.1398 8.68931 28.3244 8.68931 28.3244ZM21.5497 35.2767C15.9206 36.3353 8.97541 36.2137 4.86266 35.5342C4.86266 35.527 5.70667 36.228 10.0412 36.5069C16.6359 36.9289 26.764 36.2709 27 33.1524C27 33.1524 26.5422 34.3326 21.5497 35.2767ZM18.4312 25.2487C14.1968 26.0641 11.7435 26.0427 8.64639 25.7208C6.25027 25.4705 7.81669 24.3117 7.81669 24.3117C1.60822 26.3717 11.2642 28.7034 19.9404 26.1643C19.3796 25.9663 18.8658 25.6546 18.4312 25.2487Z" fill="#2A7AE4"/>
</svg>
