<svg width="30" height="30" viewBox="0 0 30 30" fill="none" xmlns="http://www.w3.org/2000/svg">
<path d="M29.45 11.2831C28.9344 9.21402 27.9567 7.6538 25.8742 7.6538H23.189V10.8278C23.189 13.292 21.0998 15.3678 18.716 15.3678H11.5644C9.60912 15.3678 7.98863 17.0419 7.98863 19.0039V25.8206C7.98863 27.7625 9.67608 28.9009 11.5644 29.4567C13.8277 30.1196 16.004 30.2401 18.716 29.4567C20.5173 28.9344 22.2917 27.8831 22.2917 25.8206V23.0953H15.1469V22.1846H25.8742C27.9567 22.1846 28.7268 20.7315 29.45 18.5552C30.2 16.312 30.1665 14.1558 29.45 11.2831ZM19.1646 24.9099C19.9079 24.9099 20.5106 25.5193 20.5106 26.2693C20.5106 27.0259 19.9079 27.6353 19.1646 27.6353C18.428 27.6353 17.8187 27.0192 17.8187 26.2693C17.8254 25.5126 18.428 24.9099 19.1646 24.9099ZM11.2363 14.4705H18.3879C20.3766 14.4705 21.9636 12.83 21.9636 10.8345V4.01106C21.9636 2.06916 20.3298 0.616077 18.3879 0.287963C15.9906 -0.107114 13.3858 -0.0870252 11.2363 0.294659C8.20961 0.830356 7.66052 1.94862 7.66052 4.01775V6.74311H14.8188V7.6538H4.97534C2.89281 7.6538 1.07144 8.90599 0.502266 11.2831C-0.153963 14.0085 -0.180748 15.7093 0.502266 18.5552C1.01118 20.6712 2.22319 22.1846 4.30572 22.1846H6.76323V18.9168C6.76323 16.5531 8.80557 14.4705 11.2363 14.4705ZM10.7877 4.92174C10.0444 4.92174 9.44171 4.31239 9.44171 3.56241C9.44841 2.80574 10.0444 2.19638 10.7877 2.19638C11.5242 2.19638 12.1336 2.81244 12.1336 3.56241C12.1336 4.31239 11.5309 4.92174 10.7877 4.92174Z" fill="#2A7AE4"/>
</svg>
